<?xml version="1.0" encoding="UTF-8" standalone="no"?>
<svg
   viewBox="0 0 220 90"
   fill="none"
   version="1.1"
   id="svg180"
   sodipodi:docname="hutkigrosh_white.svg"
   width="220"
   height="90"
   inkscape:version="1.2.2 (732a01da63, 2022-12-09)"
   xmlns:inkscape="http://www.inkscape.org/namespaces/inkscape"
   xmlns:sodipodi="http://sodipodi.sourceforge.net/DTD/sodipodi-0.dtd"
   xmlns="http://www.w3.org/2000/svg"
   xmlns:svg="http://www.w3.org/2000/svg">
  <defs
     id="defs184">
    <rect
       x="-18.679307"
       y="-15.923343"
       width="265.49113"
       height="135.96086"
       id="rect358" />
    <rect
       x="233.64444"
       y="-11.023853"
       width="242.83099"
       height="113.30071"
       id="rect352" />
    <rect
       x="-33.683996"
       y="-20.516616"
       width="273.75902"
       height="116.97533"
       id="rect346" />
  </defs>
  <sodipodi:namedview
     id="namedview182"
     pagecolor="#ffffff"
     bordercolor="#000000"
     borderopacity="0.25"
     inkscape:showpageshadow="2"
     inkscape:pageopacity="0.0"
     inkscape:pagecheckerboard="0"
     inkscape:deskcolor="#d1d1d1"
     showgrid="false"
     inkscape:zoom="3.2656458"
     inkscape:cx="90.181244"
     inkscape:cy="70.583282"
     inkscape:window-width="1920"
     inkscape:window-height="1010"
     inkscape:window-x="-7"
     inkscape:window-y="-7"
     inkscape:window-maximized="1"
     inkscape:current-layer="svg180" />
  <path
     d="m 88.689088,43.588197 c -0.29413,0 -0.555525,-0.09796 -0.784182,-0.294132 -0.228657,-0.228657 -0.342861,-0.506294 -0.342861,-0.832911 0,-0.261394 0.09796,-0.506294 0.293881,-0.734952 L 95.990373,30.504508 88.591127,19.96886 c -0.196169,-0.261344 -0.29413,-0.506344 -0.29413,-0.735026 0,-0.326693 0.114453,-0.588036 0.34311,-0.784057 0.228657,-0.228682 0.490052,-0.343011 0.783932,-0.343011 h 6.321434 c 0.391841,0 0.685971,0.08167 0.881892,0.245001 0.19617,0.163359 0.392091,0.375697 0.588011,0.637041 l 4.312254,6.027353 4.36123,-6.027353 c 0.0327,-0.03266 0.11445,-0.130672 0.24515,-0.294005 0.13069,-0.163359 0.29388,-0.294031 0.49005,-0.392016 0.22865,-0.130697 0.47356,-0.196021 0.73495,-0.196021 h 6.0273 c 0.29413,0 0.55552,0.114329 0.78418,0.343011 0.22866,0.196021 0.34287,0.441021 0.34287,0.735052 0,0.261344 -0.0979,0.522687 -0.29388,0.784031 l -7.54644,10.535648 8.28139,11.221694 c 0.16343,0.228658 0.24514,0.473558 0.24514,0.734952 0,0.326617 -0.11445,0.604254 -0.3431,0.832911 -0.19592,0.196171 -0.45732,0.294132 -0.78393,0.294132 h -6.61557 c -0.55528,0 -1.01259,-0.261395 -1.37194,-0.783932 l -4.75332,-6.468374 -4.802305,6.468374 c -0.19592,0.261143 -0.392091,0.457314 -0.588011,0.588011 -0.195921,0.130696 -0.473558,0.195921 -0.832913,0.195921 z"
     fill="#000000"
     id="path158"
     style="stroke-width:2.49898;fill:#ffffff" />
  <path
     d="m 144.41478,18.489384 c 0.29413,0 0.53904,0.08294 0.73495,0.248839 0.22891,0.142202 0.34311,0.308102 0.34311,0.497695 0,0.165897 -0.049,0.31994 -0.14694,0.462144 l -9.31046,16.317172 c -1.04559,1.801115 -2.04193,3.234936 -2.98929,4.301283 -0.94737,1.090277 -2.07441,1.931643 -3.38113,2.524099 -1.27399,0.616203 -2.85859,0.924214 -4.75332,0.924214 h -2.45 c -0.35935,0 -0.66973,-0.09481 -0.93113,-0.284262 -0.22865,-0.166062 -0.34311,-0.379258 -0.34311,-0.639952 v -3.02174 c 0,-0.260695 0.11446,-0.473892 0.34311,-0.639772 0.2614,-0.166062 0.57178,-0.248912 0.93113,-0.248912 h 1.71505 c 0.84941,0 1.50264,-0.177845 1.95996,-0.533173 0.45756,-0.331942 0.96385,-0.983678 1.51913,-1.955211 l 0.19617,-0.319976 -9.75155,-16.423771 c -0.0982,-0.189593 -0.14718,-0.319941 -0.14718,-0.391042 0.0655,-0.237002 0.19617,-0.426594 0.39208,-0.568797 0.22866,-0.165898 0.49005,-0.248839 0.78394,-0.248839 h 5.83138 c 0.68597,0 1.15978,0.248839 1.42117,0.746533 l 5.34134,9.989288 5.63521,-9.989288 c 0.26139,-0.497695 0.76768,-0.746533 1.51913,-0.746533 z"
     fill="#000000"
     id="path160"
     style="stroke-width:2.12847;fill:#ffffff" />
  <path
     d="m 155.69788,43.588197 c -0.35935,0 -0.66973,-0.114454 -0.93087,-0.343112 -0.2289,-0.228657 -0.34311,-0.522537 -0.34311,-0.881891 V 24.771136 h -7.30154 c -0.35935,0 -0.66947,-0.114329 -0.93087,-0.343011 -0.22865,-0.228682 -0.3431,-0.522713 -0.3431,-0.882067 v -4.214214 c 0,-0.359354 0.11445,-0.653385 0.3431,-0.882067 0.2614,-0.228682 0.57152,-0.343011 0.93087,-0.343011 h 23.12937 c 0.35935,0 0.65348,0.114329 0.88213,0.343011 0.22866,0.228682 0.34287,0.522713 0.34287,0.882067 v 4.214214 c 0,0.326692 -0.11421,0.620723 -0.34287,0.882067 -0.22865,0.228682 -0.52278,0.343011 -0.88213,0.343011 h -7.35027 v 17.592058 c 0,0.326617 -0.11445,0.620747 -0.34311,0.881891 -0.22866,0.228658 -0.52279,0.343112 -0.88214,0.343112 z"
     fill="#000000"
     id="path162"
     style="stroke-width:2.49898;fill:#ffffff" />
  <path
     d="m 201.1117,41.922122 c 0.13069,0.163434 0.19592,0.375598 0.19592,0.636992 0,0.29413 -0.0979,0.539031 -0.29388,0.734951 -0.19617,0.196171 -0.45756,0.294132 -0.78418,0.294132 h -7.30129 c -0.58801,0 -1.06182,-0.261395 -1.42118,-0.783932 l -5.58622,-8.771689 h -2.45027 v 8.330618 c 0,0.326617 -0.11419,0.620747 -0.34311,0.881891 -0.22864,0.228658 -0.52253,0.343112 -0.88189,0.343112 h -6.02729 c -0.32688,0 -0.62076,-0.114454 -0.88215,-0.343112 -0.22866,-0.261144 -0.34311,-0.555274 -0.34311,-0.881891 v -23.03135 c 0,-0.359354 0.11445,-0.653385 0.34311,-0.882067 0.26139,-0.228682 0.55527,-0.343011 0.88215,-0.343011 h 6.02729 c 0.35936,0 0.65325,0.114329 0.88189,0.343011 0.22892,0.228682 0.34311,0.522713 0.34311,0.882067 v 7.987457 h 2.54822 l 5.14516,-8.428503 c 0.35936,-0.522688 0.81693,-0.784032 1.3722,-0.784032 h 6.56633 c 0.32662,0 0.58801,0.09801 0.78394,0.294006 0.2289,0.19602 0.34311,0.441046 0.34311,0.735052 0,0.130672 -0.0817,0.359354 -0.24491,0.686046 l -6.61556,10.682638 z"
     fill="#000000"
     id="path164"
     style="stroke-width:2.49898;fill:#ffffff" />
  <path
     d="m 206.27061,14.578574 c -0.35937,0 -0.65324,-0.114354 -0.8819,-0.343036 -0.22866,-0.261344 -0.34311,-0.571693 -0.34311,-0.931047 V 8.7472414 c 0,-0.3593541 0.11445,-0.6533597 0.34311,-0.8820418 0.2614,-0.2613439 0.55528,-0.3920409 0.8819,-0.3920409 h 6.1255 c 0.35936,0 0.65324,0.130697 0.8819,0.3920409 0.26139,0.2286821 0.39209,0.5226877 0.39209,0.8820418 v 4.5572496 c 0,0.359354 -0.1307,0.669703 -0.39209,0.931047 -0.22866,0.228682 -0.52254,0.343036 -0.8819,0.343036 z m 0,29.009623 c -0.32662,0 -0.6205,-0.114454 -0.8819,-0.343112 -0.22866,-0.261144 -0.34311,-0.555274 -0.34311,-0.881891 v -23.03135 c 0,-0.359354 0.11445,-0.653385 0.34311,-0.882067 0.2614,-0.228682 0.55528,-0.343011 0.8819,-0.343011 h 6.1255 c 0.35936,0 0.65324,0.114329 0.8819,0.343011 0.26139,0.228682 0.39209,0.522713 0.39209,0.882067 v 23.03135 c 0,0.359354 -0.1307,0.653234 -0.39209,0.881891 -0.22866,0.228658 -0.52254,0.343112 -0.8819,0.343112 z"
     fill="#000000"
     id="path166"
     style="stroke-width:2.49898;fill:#ffffff" />
  <path
     d="m 89.812629,74.183023 c -0.385846,0 -0.694406,-0.09796 -0.925677,-0.294132 -0.231281,-0.19592 -0.346909,-0.457314 -0.346909,-0.783931 V 49.779655 c 0,-0.326692 0.115628,-0.588037 0.346909,-0.784057 0.231282,-0.195995 0.539831,-0.294006 0.925677,-0.294006 h 16.369881 c 0.38555,0 0.69411,0.09801 0.92567,0.294006 0.23128,0.19602 0.34691,0.457365 0.34691,0.784057 v 0.686046 c 0,0.326667 -0.11563,0.588012 -0.34691,0.784032 -0.23155,0.196021 -0.54012,0.294005 -0.92567,0.294005 H 92.068418 V 73.10496 c 0,0.326617 -0.115628,0.588011 -0.346909,0.783931 -0.231556,0.196171 -0.540126,0.294132 -0.925679,0.294132 z"
     fill="#000000"
     id="path168"
     style="stroke-width:2.7151;fill:#ffffff" />
  <path
     d="m 114.04752,83.493493 c -0.38554,0 -0.6941,-0.09796 -0.92538,-0.293882 -0.23158,-0.19617 -0.3472,-0.457564 -0.3472,-0.784181 V 49.779655 c 0,-0.326692 0.11563,-0.588037 0.3472,-0.784057 0.23129,-0.195995 0.53984,-0.294006 0.92538,-0.294006 h 0.9835 c 0.38555,0 0.69411,0.09801 0.92539,0.294006 0.23155,0.19602 0.3472,0.457365 0.3472,0.784057 v 2.303115 c 2.23661,-2.580803 5.47589,-3.871203 9.71756,-3.871203 4.16525,0 7.2302,1.127067 9.19778,3.381177 2.00594,2.221472 3.06494,4.965609 3.17999,8.232357 0.0413,0.326868 0.059,0.865899 0.059,1.617094 0,0.751445 -0.0178,1.290476 -0.059,1.617093 -0.11505,3.266924 -1.17405,6.027554 -3.17999,8.281638 -1.96758,2.221349 -5.03253,3.332147 -9.19778,3.332147 -4.20302,0 -7.4423,-1.290476 -9.71756,-3.871179 V 82.41543 c 0,0.326617 -0.11563,0.588011 -0.3472,0.784181 -0.23129,0.195921 -0.53984,0.293882 -0.92539,0.293882 z m 11.62556,-11.662516 c 3.12395,0 5.40127,-0.833161 6.82607,-2.499235 1.46609,-1.69881 2.25666,-3.871178 2.37171,-6.517354 0.0384,-0.326618 0.059,-0.783932 0.059,-1.372193 0,-3.038017 -0.69323,-5.520858 -2.08262,-7.448301 -1.38941,-1.96013 -3.77882,-2.940181 -7.17416,-2.940181 -3.04518,0 -5.33961,0.865723 -6.88211,2.597145 -1.5425,1.69876 -2.37172,3.707995 -2.48735,6.027303 l -0.0579,1.911224 0.0579,1.910974 c 0.0386,1.40468 0.40501,2.744137 1.09913,4.018369 0.69411,1.241246 1.73513,2.270329 3.12335,3.086997 1.38852,0.816918 3.10565,1.225252 5.14698,1.225252 z"
     fill="#000000"
     id="path170"
     style="stroke-width:2.7151;fill:#ffffff" />
  <path
     d="m 157.78273,74.673073 c -4.01186,0 -7.13581,-1.029081 -9.37183,-3.087247 -2.19767,-2.090651 -3.35403,-4.785807 -3.47203,-8.085467 l -0.056,-2.058164 0.056,-2.057914 c 0.118,-3.299611 1.27436,-5.978424 3.47203,-8.036538 2.23602,-2.090776 5.35997,-3.136176 9.37183,-3.136176 4.00891,0 7.11221,1.0454 9.31284,3.136176 2.23601,2.058114 3.41302,4.736927 3.52807,8.036538 0.0384,0.326616 0.056,1.012589 0.056,2.057914 0,1.045575 -0.0178,1.731546 -0.056,2.058164 -0.11505,3.29966 -1.29206,5.994816 -3.52807,8.085467 -2.20063,2.058166 -5.30393,3.087247 -9.31284,3.087247 z m 0,-2.842096 c 2.73751,0 4.93518,-0.735201 6.59302,-2.205104 1.69619,-1.502891 2.60181,-3.626278 2.71982,-6.370415 0.0384,-0.326616 0.056,-0.931122 0.056,-1.813263 0,-0.881893 -0.0178,-1.486397 -0.056,-1.813015 -0.11801,-2.744135 -1.02363,-4.851255 -2.71982,-6.321332 -1.65784,-1.502741 -3.85551,-2.254135 -6.59302,-2.254135 -2.74046,0 -4.95583,0.751394 -6.65202,2.254135 -1.66079,1.470077 -2.54577,3.577197 -2.66376,6.321332 l -0.056,1.813015 0.056,1.813263 c 0.118,2.744137 1.00297,4.867524 2.66376,6.370415 1.69619,1.469903 3.91156,2.205104 6.65202,2.205104 z"
     fill="#000000"
     id="path172"
     style="stroke-width:2.7151;fill:#ffffff" />
  <path
     d="m 179.85683,74.183023 c -0.38644,0 -0.69618,-0.09796 -0.92627,-0.294132 -0.23009,-0.19592 -0.34809,-0.457314 -0.34809,-0.783931 V 49.779655 c 0,-0.326692 0.118,-0.588037 0.34809,-0.784057 0.23008,-0.195995 0.53983,-0.294006 0.92627,-0.294006 h 0.98232 c 0.38642,0 0.69322,0.09801 0.92626,0.294006 0.23008,0.19602 0.34514,0.457365 0.34514,0.784057 v 21.561271 h 12.26568 V 49.779655 c 0,-0.326692 0.11505,-0.588037 0.34513,-0.784057 0.23303,-0.195995 0.53984,-0.294006 0.92627,-0.294006 h 0.98232 c 0.38644,0 0.69618,0.09801 0.92627,0.294006 0.23303,0.19602 0.34809,0.457365 0.34809,0.784057 v 21.561271 h 12.26272 V 49.779655 c 0,-0.326692 0.11506,-0.588037 0.34515,-0.784057 0.23303,-0.195995 0.54278,-0.294006 0.92627,-0.294006 h 0.98526 c 0.38349,0 0.69323,0.09801 0.92332,0.294006 0.23303,0.19602 0.34808,0.457365 0.34808,0.784057 V 73.10496 c 0,0.326617 -0.11504,0.588011 -0.34808,0.783931 -0.23008,0.196171 -0.53983,0.294132 -0.92332,0.294132 z"
     fill="#000000"
     id="path174"
     style="stroke-width:2.7151;fill:#ffffff" />
  <path
     d="m 42.639715,27.508567 c 5.515011,0 9.985968,-4.494459 9.985968,-10.03866 0,-5.544169 -4.470957,-10.0386283 -9.985968,-10.0386283 -5.51501,0 -9.985998,4.4944593 -9.985998,10.0386283 0,5.544201 4.470988,10.03866 9.985998,10.03866 z"
     fill="#ff5b22"
     id="path176"
     style="stroke-width:3.15902;fill:#ffffff" />
  <path
     d="M 26.884941,42.686221 C 20.037077,40.429736 13.872035,36.460495 8.9687677,31.151546 l 9.8816253,-9.223034 c 3.348368,3.625445 7.55839,6.335913 12.234714,7.876882 4.676481,1.541 9.665517,1.861925 14.499128,0.9327 4.833613,-0.929257 9.352903,-3.078178 13.133613,-6.245029 3.78071,-3.16682 6.698696,-7.247669 8.480064,-11.859297 l 12.569728,4.906838 c -2.608716,6.753093 -6.881917,12.728942 -12.418093,17.366379 -4.353444,3.64661 -9.375965,6.371579 -14.764614,8.03101 -0.0496,0.968555 -0.143741,1.932055 -0.281786,2.887657 5.829651,2.487726 11.134904,6.089953 15.615653,10.616825 5.213641,5.267344 9.176627,11.650452 11.592961,18.672631 L 66.324759,79.700737 C 64.5952,74.674743 61.759034,70.106487 58.027603,66.336518 54.921657,63.198664 51.262567,60.681561 47.245246,58.909036 44.319049,63.234677 40.354484,66.760141 35.708517,69.151832 30.61514,71.774133 24.900637,72.932228 19.194473,72.498811 13.488309,72.065394 8.0118699,70.05689 3.3683996,66.695065 L 11.55815,55.263848 c 2.5504,1.84676 5.55829,2.94989 8.692382,3.187763 3.134061,0.238179 6.272734,-0.398036 9.070201,-1.838234 2.797499,-1.440195 5.145281,-3.628761 6.784557,-6.324349 1.038051,-1.706502 1.766522,-3.574428 2.161398,-5.517224 -3.855452,-0.169956 -7.685349,-0.867466 -11.381747,-2.085583 z"
     fill="#ff5b22"
     id="path178"
     style="stroke-width:3.15902;fill:#ffffff" />
  <text
     xml:space="preserve"
     id="text344"
     style="font-style:normal;font-variant:normal;font-weight:normal;font-stretch:normal;font-size:18.6667px;font-family:sans-serif;-inkscape-font-specification:sans-serif;white-space:pre;shape-inside:url(#rect346);fill:#ffffff"
     transform="translate(0.61243629,2.7559633)" />
  <text
     xml:space="preserve"
     id="text350"
     style="font-style:normal;font-variant:normal;font-weight:normal;font-stretch:normal;font-size:18.6667px;font-family:sans-serif;-inkscape-font-specification:sans-serif;white-space:pre;shape-inside:url(#rect352);fill:#ffffff"
     transform="translate(0.61243629,2.7559633)" />
  <text
     xml:space="preserve"
     id="text356"
     style="font-style:normal;font-variant:normal;font-weight:normal;font-stretch:normal;font-size:18.6667px;font-family:sans-serif;-inkscape-font-specification:sans-serif;white-space:pre;shape-inside:url(#rect358);fill:#ffffff"
     transform="translate(0.61243629,2.7559633)" />
</svg>
