<?xml version="1.0" encoding="UTF-8" standalone="no"?>
<svg
   viewBox="0 0 108 160"
   fill="none"
   version="1.1"
   id="svg180"
   sodipodi:docname="hutkigrosh_white_vertical.svg"
   width="108"
   height="160"
   inkscape:version="1.2.2 (732a01da63, 2022-12-09)"
   xmlns:inkscape="http://www.inkscape.org/namespaces/inkscape"
   xmlns:sodipodi="http://sodipodi.sourceforge.net/DTD/sodipodi-0.dtd"
   xmlns="http://www.w3.org/2000/svg"
   xmlns:svg="http://www.w3.org/2000/svg">
  <defs
     id="defs184">
    <rect
       x="-18.679308"
       y="-15.923343"
       width="265.49112"
       height="135.96086"
       id="rect358" />
    <rect
       x="233.64444"
       y="-11.023853"
       width="242.83099"
       height="113.30071"
       id="rect352" />
    <rect
       x="-33.683994"
       y="-20.516617"
       width="273.75903"
       height="116.97533"
       id="rect346" />
  </defs>
  <sodipodi:namedview
     id="namedview182"
     pagecolor="#ffffff"
     bordercolor="#000000"
     borderopacity="0.25"
     inkscape:showpageshadow="2"
     inkscape:pageopacity="0.0"
     inkscape:pagecheckerboard="0"
     inkscape:deskcolor="#d1d1d1"
     showgrid="false"
     inkscape:zoom="3.2656458"
     inkscape:cx="105.79837"
     inkscape:cy="70.277064"
     inkscape:window-width="1920"
     inkscape:window-height="1010"
     inkscape:window-x="-7"
     inkscape:window-y="-7"
     inkscape:window-maximized="1"
     inkscape:current-layer="svg180" />
  <path
     d="m 4.8632996,122.01581 c -0.234567,0 -0.443025,-0.0782 -0.62538,-0.23457 -0.182347,-0.18235 -0.273429,-0.40377 -0.273429,-0.66424 0,-0.20846 0.07815,-0.40377 0.234368,-0.58612 l 6.4871854,-8.94925 -5.9008674,-8.40212 c -0.156444,-0.20842 -0.234567,-0.40381 -0.234567,-0.58619 0,-0.26053 0.09128,-0.46895 0.273628,-0.62528 0.182356,-0.18237 0.390821,-0.27355 0.625189,-0.27355 h 5.0413114 c 0.31249,0 0.547057,0.0651 0.703303,0.19539 0.156444,0.13028 0.31269,0.29962 0.468935,0.50804 l 3.439007,4.80678 3.47806,-4.80678 c 0.02608,-0.0261 0.09127,-0.10421 0.195506,-0.23447 0.104225,-0.13028 0.234368,-0.23449 0.390813,-0.31263 0.182347,-0.10423 0.377662,-0.15633 0.586119,-0.15633 h 4.806743 c 0.234567,0 0.443025,0.0912 0.62538,0.27355 0.182355,0.15633 0.273437,0.35172 0.273437,0.58621 0,0.20841 -0.07808,0.41684 -0.234368,0.62526 l -6.01825,8.40212 6.604369,8.94925 c 0.130335,0.18235 0.195498,0.37766 0.195498,0.58612 0,0.26047 -0.09127,0.48189 -0.27362,0.66424 -0.156246,0.15645 -0.364711,0.23457 -0.625181,0.23457 h -5.275886 c -0.442833,0 -0.807535,-0.20846 -1.094115,-0.62519 l -3.79075,-5.15849 -3.82982,5.15849 c -0.156245,0.20827 -0.31269,0.36472 -0.468935,0.46895 -0.156245,0.10422 -0.377662,0.15624 -0.6642424,0.15624 z"
     fill="#000000"
     id="path158"
     style="fill:#ffffff;stroke-width:1.99292" />
  <path
     d="m 49.304282,101.99963 c 0.234567,0 0.429882,0.0661 0.586119,0.19845 0.182555,0.1134 0.273629,0.24571 0.273629,0.39691 0,0.1323 -0.03908,0.25515 -0.117184,0.36855 l -7.425048,13.01287 c -0.833853,1.43638 -1.62843,2.57984 -2.383945,3.43025 -0.755523,0.86949 -1.654332,1.54048 -2.696435,2.01296 -1.016001,0.49142 -2.279712,0.73705 -3.79075,0.73705 h -1.953863 c -0.28658,0 -0.534107,-0.0756 -0.742572,-0.22669 -0.182347,-0.13243 -0.273629,-0.30246 -0.273629,-0.51036 v -2.40982 c 0,-0.20791 0.09128,-0.37793 0.273629,-0.51022 0.208465,-0.13244 0.455992,-0.19851 0.742572,-0.19851 h 1.367744 c 0.6774,0 1.198348,-0.14182 1.563059,-0.4252 0.364902,-0.26472 0.768665,-0.78448 1.211499,-1.55927 l 0.156444,-0.25518 -7.776815,-13.09788 c -0.07831,-0.15119 -0.117375,-0.25515 -0.117375,-0.31185 0.05224,-0.18901 0.156445,-0.34021 0.312682,-0.45361 0.182355,-0.13231 0.390812,-0.19845 0.625188,-0.19845 h 4.650498 c 0.547058,0 0.924919,0.19845 1.133377,0.59536 l 4.259693,7.9664 4.494053,-7.9664 c 0.208458,-0.39691 0.612221,-0.59536 1.211499,-0.59536 z"
     fill="#000000"
     id="path160"
     style="fill:#ffffff;stroke-width:1.69744" />
  <path
     d="m 58.302501,122.01581 c -0.28658,0 -0.534107,-0.0913 -0.742365,-0.27363 -0.182546,-0.18235 -0.273628,-0.41672 -0.273628,-0.70331 V 107.0093 h -5.822944 c -0.28658,0 -0.533899,-0.0912 -0.742364,-0.27356 -0.182348,-0.18237 -0.273621,-0.41686 -0.273621,-0.70344 v -3.36081 c 0,-0.28659 0.09127,-0.52107 0.273621,-0.70345 0.208465,-0.18237 0.455784,-0.27355 0.742364,-0.27355 h 18.445563 c 0.28658,0 0.521147,0.0912 0.703495,0.27355 0.182355,0.18238 0.273437,0.41686 0.273437,0.70345 v 3.36081 c 0,0.26053 -0.09108,0.49502 -0.273437,0.70344 -0.182348,0.18238 -0.416915,0.27356 -0.703495,0.27356 h -5.861805 v 14.02957 c 0,0.26048 -0.09127,0.49505 -0.273629,0.70331 -0.182355,0.18235 -0.416922,0.27363 -0.703502,0.27363 z"
     fill="#000000"
     id="path162"
     style="fill:#ffffff;stroke-width:1.99292" />
  <path
     d="m 94.519813,120.68712 c 0.10422,0.13034 0.15624,0.29954 0.15624,0.508 0,0.23457 -0.0781,0.42987 -0.23437,0.58612 -0.15644,0.15645 -0.3649,0.23457 -0.62538,0.23457 h -5.82274 c -0.46894,0 -0.8468,-0.20846 -1.13338,-0.62519 l -4.45499,-6.99537 h -1.95408 v 6.64362 c 0,0.26048 -0.09107,0.49505 -0.273628,0.70331 -0.182339,0.18235 -0.416715,0.27363 -0.703303,0.27363 h -4.806736 c -0.260685,0 -0.495053,-0.0913 -0.70351,-0.27363 -0.182355,-0.20826 -0.273629,-0.44283 -0.273629,-0.70331 v -18.36738 c 0,-0.28659 0.09127,-0.52107 0.273629,-0.70345 0.208457,-0.18237 0.442825,-0.27355 0.70351,-0.27355 h 4.806736 c 0.286588,0 0.520964,0.0912 0.703303,0.27355 0.182562,0.18238 0.273628,0.41686 0.273628,0.70345 v 6.36995 h 2.0322 l 4.10324,-6.72168 c 0.28659,-0.41685 0.6515,-0.62527 1.09432,-0.62527 h 5.23662 c 0.26048,0 0.46893,0.0782 0.62519,0.23447 0.18254,0.15633 0.27362,0.35173 0.27362,0.5862 0,0.10422 -0.0652,0.28659 -0.19531,0.54712 l -5.27588,8.51935 z"
     fill="#000000"
     id="path164"
     style="fill:#ffffff;stroke-width:1.99292" />
  <path
     d="m 98.634013,98.880773 c -0.28659,0 -0.52095,-0.0912 -0.70331,-0.27357 -0.18235,-0.20842 -0.27363,-0.455922 -0.27363,-0.742505 v -3.634385 c 0,-0.286583 0.0913,-0.521051 0.27363,-0.703424 0.20847,-0.208421 0.44284,-0.312651 0.70331,-0.312651 h 4.885057 c 0.28659,0 0.52095,0.10423 0.70331,0.312651 0.20846,0.182373 0.31269,0.416841 0.31269,0.703424 v 3.634385 c 0,0.286583 -0.10423,0.534085 -0.31269,0.742505 -0.18236,0.182373 -0.41672,0.27357 -0.70331,0.27357 z m 0,23.135037 c -0.26047,0 -0.49484,-0.0913 -0.70331,-0.27363 -0.18235,-0.20826 -0.27363,-0.44283 -0.27363,-0.70331 v -18.36738 c 0,-0.28659 0.0913,-0.52107 0.27363,-0.70345 0.20847,-0.18237 0.44284,-0.27355 0.70331,-0.27355 h 4.885057 c 0.28659,0 0.52095,0.0912 0.70331,0.27355 0.20846,0.18238 0.31269,0.41686 0.31269,0.70345 v 18.36738 c 0,0.28659 -0.10423,0.52096 -0.31269,0.70331 -0.18236,0.18235 -0.41672,0.27363 -0.70331,0.27363 z"
     fill="#000000"
     id="path166"
     style="fill:#ffffff;stroke-width:1.99292" />
  <path
     d="m 5.0423906,148.30908 c -0.308827,0 -0.555791,-0.0784 -0.740895,-0.23542 -0.185112,-0.15681 -0.27766,-0.36603 -0.27766,-0.62745 v -18.66907 c 0,-0.26148 0.09255,-0.47066 0.27766,-0.62755 0.185111,-0.15687 0.432068,-0.23532 0.740895,-0.23532 H 18.144497 c 0.308586,0 0.555551,0.0784 0.740887,0.23532 0.185111,0.15689 0.277659,0.36607 0.277659,0.62755 v 0.54909 c 0,0.26146 -0.09255,0.47064 -0.277659,0.62753 -0.185328,0.15689 -0.432301,0.23531 -0.740887,0.23531 H 6.8478686 v 17.25714 c 0,0.26142 -0.09254,0.47064 -0.277651,0.62745 -0.185336,0.15701 -0.432309,0.23542 -0.740895,0.23542 z"
     fill="#000000"
     id="path168"
     style="fill:#ffffff;stroke-width:2.17311" />
  <path
     d="m 24.439485,155.76098 c -0.308578,0 -0.555543,-0.0784 -0.740654,-0.23522 -0.185352,-0.15701 -0.277892,-0.36622 -0.277892,-0.62764 v -26.12098 c 0,-0.26148 0.09255,-0.47066 0.277892,-0.62755 0.185119,-0.15687 0.432076,-0.23532 0.740654,-0.23532 h 0.787173 c 0.308586,0 0.555551,0.0784 0.740662,0.23532 0.185328,0.15689 0.277892,0.36607 0.277892,0.62755 v 1.84336 c 1.790135,-2.06562 4.382787,-3.09843 7.77773,-3.09843 3.333778,0 5.7869,0.90208 7.361709,2.70623 1.605512,1.77801 2.453114,3.97436 2.545197,6.58899 0.03306,0.26162 0.04722,0.69305 0.04722,1.2943 0,0.60143 -0.01425,1.03286 -0.04722,1.29428 -0.09208,2.61478 -0.939685,4.82433 -2.545197,6.62845 -1.574809,1.77792 -4.027931,2.66698 -7.361709,2.66698 -3.364008,0 -5.95666,-1.03287 -7.77773,-3.09841 v 9.29523 c 0,0.26142 -0.09255,0.47063 -0.277892,0.62764 -0.185119,0.15681 -0.432076,0.23522 -0.740662,0.23522 z m 9.304853,-9.33443 c 2.500344,0 4.323063,-0.66685 5.463443,-2.00034 1.173427,-1.35969 1.806183,-3.0984 1.898266,-5.21635 0.03073,-0.26142 0.04722,-0.62744 0.04722,-1.09827 0,-2.43157 -0.554847,-4.41878 -1.666885,-5.96147 -1.112055,-1.56884 -3.024488,-2.35325 -5.742047,-2.35325 -2.437298,0 -4.273711,0.6929 -5.508296,2.07869 -1.234584,1.35965 -1.898274,2.96781 -1.990822,4.82413 l -0.04634,1.52971 0.04634,1.5295 c 0.03089,1.12427 0.324161,2.19635 0.87972,3.21621 0.555551,0.99347 1.388762,1.81713 2.499864,2.47077 1.111342,0.65385 2.485697,0.98067 4.119534,0.98067 z"
     fill="#000000"
     id="path170"
     style="fill:#ffffff;stroke-width:2.17311" />
  <path
     d="m 59.444225,148.7013 c -3.211008,0 -5.711352,-0.82366 -7.501015,-2.47097 -1.758969,-1.67331 -2.684495,-3.83046 -2.77894,-6.47143 l -0.04482,-1.64731 0.04482,-1.64712 c 0.09445,-2.64094 1.019971,-4.785 2.77894,-6.43227 1.789663,-1.67341 4.290007,-2.51013 7.501015,-2.51013 3.208647,0 5.692463,0.83672 7.453801,2.51013 1.789655,1.64727 2.731709,3.79133 2.823792,6.43227 0.03074,0.26142 0.04482,0.81046 0.04482,1.64712 0,0.83685 -0.01425,1.38589 -0.04482,1.64731 -0.09208,2.64097 -1.034137,4.79812 -2.823792,6.47143 -1.761338,1.64731 -4.245154,2.47097 -7.453801,2.47097 z m 0,-2.27475 c 2.191045,0 3.950014,-0.58844 5.276914,-1.76492 1.357595,-1.20289 2.082434,-2.9024 2.176887,-5.09875 0.03073,-0.26142 0.04482,-0.74525 0.04482,-1.45129 0,-0.70586 -0.01425,-1.18969 -0.04482,-1.45111 -0.09445,-2.19634 -0.819292,-3.88283 -2.176887,-5.05945 -1.3269,-1.20277 -3.085869,-1.80416 -5.276914,-1.80416 -2.193406,0 -3.966542,0.60139 -5.324137,1.80416 -1.329261,1.17662 -2.03758,2.86311 -2.132017,5.05945 l -0.04482,1.45111 0.04482,1.45129 c 0.09445,2.19635 0.802756,3.89586 2.132017,5.09875 1.357595,1.17648 3.130731,1.76492 5.324137,1.76492 z"
     fill="#000000"
     id="path172"
     style="fill:#ffffff;stroke-width:2.17311" />
  <path
     d="m 77.111869,148.30908 c -0.309298,0 -0.557208,-0.0784 -0.741367,-0.23542 -0.184159,-0.15681 -0.278604,-0.36603 -0.278604,-0.62745 v -18.66907 c 0,-0.26148 0.09445,-0.47066 0.278604,-0.62755 0.184151,-0.15687 0.432069,-0.23532 0.741367,-0.23532 h 0.786228 c 0.309283,0 0.554839,0.0784 0.741359,0.23532 0.184151,0.15689 0.276243,0.36607 0.276243,0.62755 v 17.25718 h 9.817184 v -17.25718 c 0,-0.26148 0.0921,-0.47066 0.27624,-0.62755 0.18651,-0.15687 0.43208,-0.23532 0.74137,-0.23532 h 0.78622 c 0.3093,0 0.55721,0.0784 0.74137,0.23532 0.18651,0.15689 0.27861,0.36607 0.27861,0.62755 v 17.25718 h 9.814817 v -17.25718 c 0,-0.26148 0.0921,-0.47066 0.27625,-0.62755 0.18651,-0.15687 0.43443,-0.23532 0.74137,-0.23532 h 0.78858 c 0.30693,0 0.55484,0.0784 0.739,0.23532 0.18652,0.15689 0.2786,0.36607 0.2786,0.62755 v 18.66907 c 0,0.26142 -0.0921,0.47064 -0.2786,0.62745 -0.18415,0.15701 -0.43207,0.23542 -0.739,0.23542 z"
     fill="#000000"
     id="path174"
     style="fill:#ffffff;stroke-width:2.17311" />
  <path
     d="m 53.34935,29.295428 c 6.84699,0 12.397767,-5.579956 12.397767,-12.463185 0,-6.8831899 -5.550777,-12.4631457 -12.397767,-12.4631457 -6.846989,0 -12.397805,5.5799558 -12.397805,12.4631457 0,6.883229 5.550816,12.463185 12.397805,12.463185 z"
     fill="#ff5b22"
     id="path176"
     style="fill:#ffffff;stroke-width:3.92198" />
  <path
     d="M 33.789501,48.138771 C 25.287749,45.337302 17.633734,40.409415 11.546235,33.818255 l 12.268224,-11.45057 c 4.157062,4.501058 9.383883,7.866155 15.189627,9.779297 5.80594,1.91318 11.999922,2.311615 18.000941,1.157964 6.001021,-1.15369 11.611805,-3.821615 16.305627,-7.753321 4.693823,-3.931666 8.316559,-8.998117 10.528159,-14.72354 l 15.60555,6.091932 c -3.23877,8.384092 -8.54403,15.803221 -15.41729,21.560686 -5.404884,4.527335 -11.640439,7.910435 -18.330548,9.97065 -0.06158,1.202479 -0.178457,2.398683 -0.349843,3.585081 7.237622,3.088558 13.824193,7.560791 19.387131,13.180988 6.47283,6.539506 11.39295,14.464255 14.39288,23.182422 l -16.37191,5.693145 C 80.607498,87.853123 77.086344,82.181547 72.453702,77.50106 68.597612,73.605355 64.054783,70.480324 59.067203,68.279701 55.434274,73.650066 50.512192,78.026996 44.744137,80.996325 38.420614,84.251961 31.325951,85.689758 24.241641,85.151662 17.157331,84.613567 10.358228,82.119972 4.5932726,77.946203 L 14.761002,63.754132 c 3.166369,2.292787 6.900721,3.662344 10.791756,3.957667 3.890995,0.295704 7.787717,-0.494169 11.260825,-2.282202 3.473148,-1.788029 6.387963,-4.505175 8.423155,-7.851798 1.28876,-2.118654 2.19317,-4.43772 2.683416,-6.849737 -4.786616,-0.211004 -9.541505,-1.076976 -14.130653,-2.589291 z"
     fill="#ff5b22"
     id="path178"
     style="fill:#ffffff;stroke-width:3.92198" />
  <text
     xml:space="preserve"
     id="text344"
     style="font-style:normal;font-variant:normal;font-weight:normal;font-stretch:normal;font-size:18.6667px;font-family:sans-serif;-inkscape-font-specification:sans-serif;white-space:pre;shape-inside:url(#rect346);display:inline;fill:#ffffff"
     transform="translate(0.61243629,2.7559633)" />
  <text
     xml:space="preserve"
     id="text350"
     style="font-style:normal;font-variant:normal;font-weight:normal;font-stretch:normal;font-size:18.6667px;font-family:sans-serif;-inkscape-font-specification:sans-serif;white-space:pre;shape-inside:url(#rect352);display:inline;fill:#ffffff"
     transform="translate(0.61243629,2.7559633)" />
  <text
     xml:space="preserve"
     id="text356"
     style="font-style:normal;font-variant:normal;font-weight:normal;font-stretch:normal;font-size:18.6667px;font-family:sans-serif;-inkscape-font-specification:sans-serif;white-space:pre;shape-inside:url(#rect358);display:inline;fill:#ffffff"
     transform="translate(0.61243629,2.7559633)" />
</svg>
